# xmcd CD database file
#
# Track frame offsets:
#	150
#	12760
#	25657
#	38445
#	50292
#	62435
#	73115
#	86310
#	100980
#	113975
#	126605
#	138550
#	152762
#	165400
#	177867
#	190582
#	199932
#	211562
#
# Disc length: 2984 seconds
#
# Revision: 1
# Processed by: cddbd v1.5.2PL0 Copyright (c) Steve Scherf et al.
# Submitted via: CDex 1.51
#
DISCID=e50ba612
DTITLE=Jimmy Reed - I'm Jimmy Reed
DYEAR=195
DGENRE=Blues
TTITLE0=Honest I Do
TTITLE1=Go On To School
TTITLE2=My First Plea
TTITLE3=Boogie In The Dark
TTITLE4=You Go Me Crying
TTITLE5=Ain't That Lovin' You Baby
TTITLE6=You Got Me Dizzy
TTITLE7=Little Rain
TTITLE8=Can't Stand To See You Go
TTITLE9=Roll And Rhumba
TTITLE10=You're Something Else
TTITLE11=You Don't Have To Go
TTITLE12=High And Lonesome
TTITLE13=Jimmie's Boogie
TTITLE14=I Found My Baby
TTITLE15=Shoot My Baby
TTITLE16=I'm Gonna Ruin You
TTITLE17=Pretty Thing
EXTD=YEAR: 195
EXTT0=
EXTT1=
EXTT2=
EXTT3=
EXTT4=
EXTT5=
EXTT6=
EXTT7=
EXTT8=
EXTT9=
EXTT10=
EXTT11=
EXTT12=
EXTT13=
EXTT14=
EXTT15=
EXTT16=
EXTT17=
PLAYORDER=
